<?xml version="1.0" encoding="UTF-8"?>
<svg id="Capa_2" data-name="Capa 2" xmlns="http://www.w3.org/2000/svg" viewBox="0 0 786.27 165.26">
  <defs>
    <style>
      .cls-1 {
        fill: #fff;
      }
    </style>
  </defs>
  <g id="Capa_1-2" data-name="Capa 1">
    <g>
      <path class="cls-1" d="M0,162.86L69.22,2.39h64.43l69.46,160.47h-51.73l-12.21-29.7H62.99l-12.45,29.7H0ZM79.99,92.69h42.63l-9.34-22.51-10.54-27.06h-3.11l-10.3,27.06-9.34,22.51Z"/>
      <path class="cls-1" d="M207.88,162.86V2.39h93.64c42.39,0,64.67,17.72,64.67,49.1,0,25.39-12.69,40.48-43.35,44.31v2.39c16.53,4.31,21.79,12.21,27.78,24.43l19.88,40.24h-51.97l-19.16-39.28c-5.75-11.98-10.54-15.33-28.02-15.33h-18.44v54.61h-45.03ZM252.91,74.72h48.14c13.17,0,17.96-2.4,17.96-16.05,0-12.69-4.79-15.81-17.96-15.81h-48.14v31.85Z"/>
      <path class="cls-1" d="M375.29,82.63c0-50.06,32.81-82.63,88.62-82.63s86.22,25.63,86.22,68.5v4.07h-50.3v-4.07c0-18.2-8.62-25.39-35.21-25.39-32.57,0-41.43,7.66-41.43,39.52s8.86,39.52,41.43,39.52c26.58,0,35.21-7.19,35.21-25.39v-4.07h50.3v4.07c0,42.87-32.33,68.5-86.22,68.5s-88.62-32.57-88.62-82.63Z"/>
      <path class="cls-1" d="M562.1,162.86V2.39h45.03v59.64h74.72V2.39h45.03v160.47h-45.03v-60.35h-74.72v60.35h-45.03Z"/>
      <path class="cls-1" d="M741.24,162.86V2.39h45.03v160.47h-45.03Z"/>
    </g>
  </g>
</svg>