<?xml version="1.0" encoding="UTF-8"?>
<svg id="Capa_2" data-name="Capa 2" xmlns="http://www.w3.org/2000/svg" xmlns:xlink="http://www.w3.org/1999/xlink" viewBox="-10 -10 119.47 119.47">
  <defs>
    <style>
      .cls-1 {
        fill: none;
      }

      .cls-2 {
        fill: #2898a0;
      }

      .cls-3 {
        fill: #663c90;
      }

      .cls-4 {
        fill: #727272;
      }

      .cls-5 {
        fill: #b5b5b5;
      }

      .cls-6 {
        fill: #b86427;
      }

      .cls-7 {
        fill: #2f508d;
      }

      .cls-8 {
        fill: #992e2e;
      }

      .cls-9 {
        fill: #3d8533;
      }

      .cls-10 {
        fill: #d1b40a;
      }

      .cls-11 {
        clip-path: url(#clippath);
      }
    </style>
    <clipPath id="clippath">
      <path class="cls-1" d="M97.03,49.74c0,26.12-21.18,47.3-47.3,47.3S2.43,75.86,2.43,49.74,23.61,2.43,49.73,2.43s47.3,21.18,47.3,47.3ZM66.52,49.72c0-9.29-7.53-16.82-16.81-16.82s-16.81,7.53-16.81,16.82,7.53,16.82,16.81,16.82,16.81-7.53,16.81-16.82Z"/>
    </clipPath>
  </defs>
  <g id="Capa_2-2" data-name="Capa 2">
    <g>
      <path class="cls-4" d="M99.47,49.74c0,27.47-22.27,49.74-49.73,49.74S0,77.2,0,49.74,22.27,0,49.73,0s49.73,22.27,49.73,49.74ZM64.46,49.72c0-8.15-6.6-14.75-14.75-14.75s-14.75,6.6-14.75,14.75,6.6,14.75,14.75,14.75,14.75-6.6,14.75-14.75Z"/>
      <path class="cls-8" d="M97.03,49.74c0,26.12-21.18,47.3-47.3,47.3S2.43,75.86,2.43,49.74,23.61,2.43,49.73,2.43s47.3,21.18,47.3,47.3ZM66.52,49.72c0-9.29-7.53-16.82-16.81-16.82s-16.81,7.53-16.81,16.82,7.53,16.82,16.81,16.82,16.81-7.53,16.81-16.82Z"/>
      <g class="cls-11">
        <rect class="cls-10" x="24.26" y="12.56" width="50.95" height="125.29" transform="translate(124.95 25.48) rotate(90)"/>
        <rect class="cls-9" x="4.76" y="2.63" width="50.95" height="125.29" transform="translate(97.77 90.05) rotate(135)"/>
        <rect class="cls-2" x="-1.22" y="-12.91" width="50.95" height="125.29" transform="translate(48.51 99.47) rotate(180)"/>
        <polygon class="cls-7" points="49.73 -13.19 73.97 -13.19 57.75 -29.41 -30.85 59.18 5.18 95.21 49.73 50.66 49.73 -13.19"/>
        <rect class="cls-3" x="-17.24" y="-1.24" width="66.97" height="50.95"/>
        <polygon class="cls-5" points="49.73 -12.91 60.46 -12.91 47.37 -26 11.34 10.03 49.68 48.37 49.73 48.32 49.73 -12.91"/>
        <polygon class="cls-6" points="110.45 49.7 110.45 60.43 123.54 47.33 87.51 11.3 49.17 49.65 49.23 49.7 110.45 49.7"/>
      </g>
    </g>
  </g>
</svg>