<?xml version="1.0" encoding="UTF-8"?>
<svg id="Capa_2" data-name="Capa 2" xmlns="http://www.w3.org/2000/svg" viewBox="0 0 253.38 41.14">
  <defs>
    <style>
      .cls-1 {
        fill: #fff;
      }
    </style>
  </defs>
  <g id="Capa_1-2" data-name="Capa 1">
    <g>
      <path class="cls-1" d="M21.04,1.02h18.18l21.04,39.21h-17.21l-3.09-6.71h-19.63l-3.09,6.71H0L21.04,1.02ZM24.74,23.95h10.77l-5.37-11.58-5.4,11.58Z"/>
      <path class="cls-1" d="M99.19.99c8.08-.09,14.94,6.71,14.82,14.82,0,2.95-.79,5.63-2.36,8.02-1.55,2.36-3.62,4.17-6.19,5.37l8.55,11h-16.28l-7.38-9.57h-13.65v9.57h-15.29V.99h37.78ZM76.7,12.46v6.68h18.64c.93,0,1.72-.32,2.36-.96.67-.67.99-1.46.99-2.36,0-1.87-1.49-3.35-3.35-3.35h-18.64Z"/>
      <path class="cls-1" d="M171.08,23.92c-.96,13.25-12.57,17.21-26.7,17.21-14.7-.03-26.84-4.29-26.78-19.14v-2.86c-.06-14.82,12.08-19.08,26.78-19.14,14.12.03,25.73,4,26.7,17.21h-15.67c-1.43-3.85-5.78-4.76-11.03-4.76-6.24.09-11.55,1.2-11.47,7.64v.96c-.09,6.39,5.22,7.56,11.47,7.64,5.25,0,9.63-.93,11.03-4.78h15.67Z"/>
      <path class="cls-1" d="M190.92,26.78v13.39h-15.29V.96h15.29v13.39h22.96V.96h15.32v39.21h-15.32v-13.39h-22.96Z"/>
      <path class="cls-1" d="M253.38.96v39.21h-15.29V.96h15.29Z"/>
    </g>
  </g>
</svg>